<svg xmlns="http://www.w3.org/2000/svg" viewBox="0 0 64 64">
  <defs>
    <linearGradient id="cfGrad" x1="4" y1="4" x2="60" y2="60" gradientUnits="userSpaceOnUse">
      <stop offset="0" stop-color="#0b6bdc" />
      <stop offset="1" stop-color="#16a7a3" />
    </linearGradient>
  </defs>
  <rect width="64" height="64" rx="14" fill="#0f172a" />
  <path
    d="M48 20.5c-2.9-2.5-6.8-4-11-4C27.6 16.5 20 24.1 20 33.5S27.6 50.5 37 50.5c4.4 0 8.4-1.6 11.4-4.4l-4.2-4.5c-1.9 1.8-4.5 2.9-7.2 2.9-5.9 0-10.8-4.9-10.8-11s4.9-11 10.8-11c2.6 0 5 0.9 6.9 2.5L48 20.5Z"
    fill="url(#cfGrad)"
  />
  <rect x="13" y="30" width="18" height="4.2" rx="2.1" fill="#e2efff" />
</svg>
